<svg width="62" height="14" fill="none" xmlns="http://www.w3.org/2000/svg"><path fill-rule="evenodd" clip-rule="evenodd" d="M2.988 5.352v7.32H0V.384h2.988v1.788C3.42 1.468 3.96.93 4.608.558A4.215 4.215 0 016.744 0c.408 0 .826.054 1.254.162.428.108.794.25 1.098.426L7.86 3.12a3.62 3.62 0 00-.918-.384 3.65 3.65 0 00-.966-.144c-.512 0-.996.132-1.452.396a3.36 3.36 0 00-1.11 1.02 2.338 2.338 0 00-.426 1.344zm17.066 6.876c-1.068.552-2.266.828-3.594.828-1.328 0-2.526-.276-3.594-.828a6.45 6.45 0 01-2.538-2.304c-.624-.984-.936-2.116-.936-3.396 0-1.288.312-2.422.936-3.402A6.476 6.476 0 0112.86.828C13.924.276 15.124 0 16.46 0c1.328 0 2.526.276 3.594.828a6.421 6.421 0 012.532 2.298c.62.98.93 2.114.93 3.402 0 1.28-.31 2.412-.93 3.396a6.406 6.406 0 01-2.532 2.304zm-3.594-1.74c-.744 0-1.416-.17-2.016-.51a3.729 3.729 0 01-1.416-1.404c-.344-.596-.516-1.278-.516-2.046 0-.776.172-1.462.516-2.058a3.686 3.686 0 011.416-1.398c.6-.336 1.272-.504 2.016-.504.752 0 1.426.168 2.022.504a3.698 3.698 0 011.41 1.398c.344.596.516 1.282.516 2.058 0 .768-.172 1.45-.516 2.046a3.741 3.741 0 01-1.41 1.404c-.596.34-1.27.51-2.022.51zm19.298 1.74c-1.068.552-2.266.828-3.594.828-1.328 0-2.526-.276-3.594-.828a6.45 6.45 0 01-2.538-2.304c-.624-.984-.936-2.116-.936-3.396 0-1.288.312-2.422.936-3.402A6.476 6.476 0 0128.564.828C29.628.276 30.828 0 32.164 0c1.328 0 2.526.276 3.594.828a6.421 6.421 0 012.532 2.298c.62.98.93 2.114.93 3.402 0 1.28-.31 2.412-.93 3.396a6.406 6.406 0 01-2.532 2.304zm-3.594-1.74c-.744 0-1.416-.17-2.016-.51a3.729 3.729 0 01-1.416-1.404c-.344-.596-.516-1.278-.516-2.046 0-.776.172-1.462.516-2.058a3.686 3.686 0 011.416-1.398c.6-.336 1.272-.504 2.016-.504.752 0 1.426.168 2.022.504a3.698 3.698 0 011.41 1.398c.344.596.516 1.282.516 2.058 0 .768-.172 1.45-.516 2.046a3.741 3.741 0 01-1.41 1.404c-.596.34-1.27.51-2.022.51zm12.608-5.592v7.776h-2.988V.384h2.988V1.86c.568-.632 1.166-1.1 1.794-1.404A4.687 4.687 0 0148.636 0c.968 0 1.83.22 2.586.66.756.44 1.29 1.032 1.602 1.776.552-.784 1.18-1.386 1.884-1.806.704-.42 1.52-.63 2.448-.63.88 0 1.662.182 2.346.546a4.051 4.051 0 011.62 1.56c.396.676.594 1.49.594 2.442v8.124h-2.988V5.364c0-.912-.238-1.634-.714-2.166S56.9 2.4 56.1 2.4c-.544 0-1.032.116-1.464.348-.432.232-.772.54-1.02.924a2.237 2.237 0 00-.372 1.236v7.764h-2.988V5.244c0-.864-.232-1.554-.696-2.07-.464-.516-1.096-.774-1.896-.774-.552 0-1.046.116-1.482.348-.436.232-.78.538-1.032.918s-.378.79-.378 1.23z" fill="#fff"/></svg>